<svg xmlns="http://www.w3.org/2000/svg" width="69.666" height="69.67" viewBox="44.805 202.331 69.666 69.67"><path d="M114.437 270.24c-1.306-5.77-8.763-8.581-11.34-9.489-2.83-.998-6.858-1.233-9.452-1.814-1.488-.327-3.647-1.143-4.373-2.014-.725-.87-.29-8.944-.29-8.944s1.343-2.087 2.068-3.937c.726-1.833 1.524-6.877 1.524-6.877s1.488 0 2.014-2.612c.563-2.849 1.452-3.955 1.343-6.078-.109-2.087-1.252-2.032-1.252-2.032s1.107-3.03 1.234-9.308c.163-7.456-5.679-14.804-16.256-14.804-10.723 0-16.438 7.348-16.275 14.804.145 6.278 1.216 9.308 1.216 9.308s-1.143-.055-1.252 2.032c-.109 2.123.78 3.23 1.343 6.078.508 2.612 2.013 2.612 2.013 2.612s.799 5.044 1.524 6.877c.726 1.85 2.069 3.937 2.069 3.937s.435 8.073-.29 8.944c-.726.871-2.885 1.687-4.373 2.014-2.595.58-6.622.816-9.453 1.814-2.576.908-10.033 3.72-11.339 9.49-.2.906.49 1.76 1.433 1.76h66.749c.925 0 1.614-.854 1.415-1.76Z" fill="#569cd4" fill-rule="evenodd" data-name="Icon ionic-ios-person"/></svg>