<svg xmlns="http://www.w3.org/2000/svg" width="25" height="28.19" viewBox="39.994 645.445 25 28.19"><g data-name="icons/şube"><path d="M44.517 673.635a4.528 4.528 0 0 1-4.523-4.523v-19.144a4.528 4.528 0 0 1 4.523-4.523H60.47a4.528 4.528 0 0 1 4.523 4.523v19.144a4.528 4.528 0 0 1-4.523 4.523H44.517Zm-1.858-23.667v19.144a1.86 1.86 0 0 0 1.858 1.86H60.47c1.025 0 1.86-.834 1.86-1.86v-19.144a1.86 1.86 0 0 0-1.86-1.858H44.517a1.86 1.86 0 0 0-1.858 1.858Zm3.453 17.286a1.333 1.333 0 0 1-.167-2.653l.167-.012h6.382a1.332 1.332 0 0 1 .167 2.655l-.167.01h-6.382Zm0-6.382a1.334 1.334 0 0 1-1.333-1.333v-7.976c0-.734.6-1.332 1.333-1.332h12.763c.734 0 1.331.598 1.331 1.332v7.976c0 .736-.597 1.333-1.33 1.333H46.111Zm1.332-2.664h10.099v-5.312H47.444v5.312Z" fill="#569cd4" fill-rule="evenodd" data-name="Combined Shape"/></g></svg>