<svg xmlns="http://www.w3.org/2000/svg" width="20" height="13.636" viewBox="278.186 375.886 20 13.636"><path d="M288.186 375.886c-4.545 0-8.427 2.828-10 6.819 1.573 3.99 5.455 6.818 10 6.818s8.427-2.828 10-6.818c-1.573-3.991-5.455-6.819-10-6.819Zm0 11.364a4.547 4.547 0 0 1-4.545-4.545 4.547 4.547 0 0 1 4.545-4.546 4.547 4.547 0 0 1 4.545 4.546 4.547 4.547 0 0 1-4.545 4.545Zm0-7.273a2.724 2.724 0 0 0-2.727 2.728 2.724 2.724 0 0 0 2.727 2.727 2.724 2.724 0 0 0 2.727-2.727 2.724 2.724 0 0 0-2.727-2.728Z" fill="#569cd4" fill-rule="evenodd" data-name="Icon material-remove-red-eye"/></svg>