<svg xmlns="http://www.w3.org/2000/svg" width="18.719" height="22.625" viewBox="297 103 18.719 22.625"><g data-name="bell"><g data-name="Gruppe 16110"><path d="M315.673 119.832a.884.884 0 1 0-1.737.326.874.874 0 0 1-.19.729.872.872 0 0 1-.679.319h-13.415c-.361 0-.581-.2-.68-.32a.874.874 0 0 1-.189-.728c.25-1.338.754-2.218 1.24-3.069.591-1.033 1.202-2.102 1.202-3.749v-1.325c0-2.787 2.265-5.085 5.05-5.126h.168c2.776.04 5.034 2.339 5.034 5.126v1.325c0 1.402.458 2.367.888 3.16a.884.884 0 1 0 1.555-.84c-.428-.79-.676-1.424-.676-2.32v-1.325a6.86 6.86 0 0 0-1.983-4.838 6.826 6.826 0 0 0-4.026-2.002v-1.291a.884.884 0 1 0-1.768 0v1.294c-3.379.438-6.01 3.354-6.01 6.837v1.325c0 1.178-.427 1.925-.968 2.872-.533.933-1.138 1.99-1.443 3.62-.146.779.06 1.574.566 2.184a2.643 2.643 0 0 0 2.04.957h4.065a2.654 2.654 0 0 0 2.65 2.652 2.654 2.654 0 0 0 2.652-2.652h4.048c.791 0 1.535-.349 2.04-.957.505-.61.712-1.405.566-2.184Zm-9.305 4.025a.885.885 0 0 1-.884-.884h1.768a.885.885 0 0 1-.884.884Z" fill="#569cd4" fill-rule="evenodd" data-name="Pfad 1946"/></g></g></svg>