<svg xmlns="http://www.w3.org/2000/svg" width="225.949" height="361.137" viewBox="94 110 225.949 361.137"><g data-name="Gruppe 16462"><path d="M6 0h349.137a6 6 0 0 1 6 6v213.95a6 6 0 0 1-6 6H6a6 6 0 0 1-6-6V6a6 6 0 0 1 6-6z" fill-rule="evenodd" fill="url(#a)" transform="rotate(90 104.975 214.975)" data-name="asplaycard"/><g data-name="finbrick-logo-02 (1)"><path d="M129.498 285.874v-3.396c0-1.156.217-2.24.675-3.275a8.296 8.296 0 0 1 1.806-2.698c.746-.77 1.637-1.372 2.673-1.83a7.978 7.978 0 0 1 3.275-.674c.82 0 1.494.265 2.048.819.554.554.818 1.228.818 2.047 0 .385-.072.746-.216 1.084-.145.337-.362.65-.602.89-.265.241-.554.434-.916.579a2.874 2.874 0 0 1-1.132.216h-.12c-.385.024-.722.12-1.06.265-.337.193-.602.41-.843.675-.24.265-.409.554-.553.89-.12.338-.193.7-.193 1.085v3.323h1.902c.41 0 .771.072 1.132.217.338.144.65.337.892.602a2.755 2.755 0 0 1 .819 1.999c0 .41-.073.77-.217 1.132-.145.337-.338.65-.602.89-.241.242-.554.459-.892.603a2.874 2.874 0 0 1-1.132.217h-1.902v13.174c0 .41-.072.77-.217 1.132a3.35 3.35 0 0 1-.602.915 2.775 2.775 0 0 1-1.975.819c-.385 0-.746-.073-1.084-.217a3.35 3.35 0 0 1-.915-.602 2.634 2.634 0 0 1-.602-.915 2.874 2.874 0 0 1-.217-1.132v-13.174h-1.324c-.386 0-.747-.072-1.084-.217a3.35 3.35 0 0 1-.915-.602 2.634 2.634 0 0 1-.602-.915 2.808 2.808 0 0 1-.217-1.084c0-.41.072-.77.217-1.108.144-.337.36-.626.602-.891.265-.24.554-.458.915-.602a2.808 2.808 0 0 1 1.084-.217l1.276-.024Z" fill="#fff" fill-rule="evenodd" data-name="Pfad 2076"/><path d="M144.117 277.59c0-.434.072-.844.24-1.229.17-.385.386-.723.675-.987.29-.29.602-.506.988-.675a2.91 2.91 0 0 1 1.204-.24c.433 0 .819.072 1.204.24.385.169.723.386 1.012.675.289.289.505.602.674.987.169.385.24.795.24 1.228 0 .41-.071.82-.24 1.18a3.127 3.127 0 0 1-.674.988 3.235 3.235 0 0 1-1.012.674c-.385.169-.77.241-1.204.241a2.91 2.91 0 0 1-1.204-.24c-.386-.17-.723-.386-.988-.675a3.129 3.129 0 0 1-.674-.988 3.127 3.127 0 0 1-.24-1.18Z" fill="#fff" fill-rule="evenodd" data-name="Pfad 2077"/><path d="M150.066 304.78c0 .385-.073.747-.217 1.084-.145.337-.337.65-.602.89a2.756 2.756 0 0 1-1.999.819c-.385 0-.747-.072-1.084-.216a2.878 2.878 0 0 1-.915-.602c-.265-.241-.458-.554-.602-.891a2.808 2.808 0 0 1-.217-1.084v-18.617c0-.385.072-.746.241-1.084.144-.337.361-.626.626-.89.265-.266.554-.458.915-.603a2.874 2.874 0 0 1 1.132-.217c.41 0 .77.073 1.084.217.337.145.626.361.867.602.24.265.458.554.578.891.145.338.217.699.217 1.084l-.024 18.617Z" fill="#fff" fill-rule="evenodd" data-name="Pfad 2078"/><path d="M178.75 304.852c0 .41-.073.77-.217 1.108a3.152 3.152 0 0 1-.578.891c-.241.241-.53.458-.867.578a2.722 2.722 0 0 1-1.084.217c-.385 0-.747-.072-1.108-.217a2.703 2.703 0 0 1-.915-.578c-.265-.24-.458-.554-.626-.891a2.763 2.763 0 0 1-.241-1.108v-9.682c0-.144 0-.24.024-.313a6.863 6.863 0 0 0-.53-2.408 6.369 6.369 0 0 0-1.276-1.95 6.165 6.165 0 0 0-1.879-1.325 5.938 5.938 0 0 0-2.384-.482c-.891 0-1.71.169-2.457.482a5.167 5.167 0 0 0-1.902 1.348 6.655 6.655 0 0 0-1.253 2.023c-.313.771-.457 1.614-.457 2.481v9.826c0 .41-.072.77-.217 1.108a3.152 3.152 0 0 1-.578.891c-.24.241-.554.458-.867.578a2.722 2.722 0 0 1-1.084.217c-.385 0-.746-.072-1.083-.217a3.276 3.276 0 0 1-.916-.578 2.597 2.597 0 0 1-.626-.891 2.764 2.764 0 0 1-.24-1.108v-9.826c0-1.662.288-3.227.89-4.672.602-1.445 1.421-2.722 2.481-3.806a11.629 11.629 0 0 1 3.733-2.577c1.421-.626 2.962-.939 4.624-.939 1.662 0 3.203.313 4.648.94 1.421.626 2.65 1.469 3.71 2.576 1.035 1.084 1.854 2.36 2.456 3.806.602 1.445.89 3.01.89 4.672v9.826h-.071Z" fill="#fff" fill-rule="evenodd" data-name="Pfad 2079"/><path d="M183.783 276.939c0-.41.072-.795.217-1.156.144-.361.337-.674.602-.94.24-.264.554-.481.891-.625a2.874 2.874 0 0 1 1.132-.217c.41 0 .795.072 1.132.217.337.144.626.36.891.626.24.265.458.578.578.939.145.361.217.747.217 1.156v8.116a12.791 12.791 0 0 1 3.179-1.493c1.132-.361 2.336-.53 3.588-.53 1.71 0 3.324.337 4.841.988a12.68 12.68 0 0 1 3.926 2.649c1.132 1.132 1.999 2.432 2.65 3.95.65 1.517.987 3.13.987 4.84s-.338 3.3-.988 4.817a12.512 12.512 0 0 1-6.575 6.623c-1.493.65-3.107.988-4.84.988-1.71 0-3.3-.337-4.817-.988-1.518-.65-2.842-1.541-3.95-2.673a12.721 12.721 0 0 1-2.673-3.95 12.053 12.053 0 0 1-.988-4.817v-18.52Zm5.66 18.52c0 .916.168 1.783.53 2.626a7.043 7.043 0 0 0 1.469 2.167 6.935 6.935 0 0 0 2.143 1.47c.82.36 1.686.53 2.625.53.94 0 1.807-.17 2.625-.53.82-.362 1.542-.844 2.144-1.47a6.577 6.577 0 0 0 1.445-2.167c.337-.82.53-1.686.53-2.626 0-.939-.169-1.83-.53-2.649a6.24 6.24 0 0 0-1.445-2.143 7.304 7.304 0 0 0-2.144-1.445c-.818-.362-1.685-.53-2.625-.53-.939 0-1.806.168-2.625.53a7.002 7.002 0 0 0-2.143 1.445c-.626.602-1.108 1.324-1.47 2.143a6.59 6.59 0 0 0-.53 2.65Z" fill="#fff" fill-rule="evenodd" data-name="Pfad 2080"/><path d="M217.67 304.804c0 .385-.073.747-.218 1.084-.144.337-.337.65-.578.89-.24.242-.554.434-.867.579a2.606 2.606 0 0 1-1.06.217c-.409 0-.77-.073-1.131-.217a2.704 2.704 0 0 1-.915-.578c-.265-.241-.458-.53-.627-.891a2.835 2.835 0 0 1-.24-1.084v-8.405c0-1.782.337-3.468 1.035-5.058a12.958 12.958 0 0 1 2.794-4.142 12.957 12.957 0 0 1 4.142-2.794 12.72 12.72 0 0 1 5.034-1.036h.048c.94 0 1.662.265 2.167.795.506.53.771 1.204.771 2.023 0 .41-.072.77-.24 1.132-.145.337-.362.65-.627.891s-.578.458-.939.602a2.96 2.96 0 0 1-1.132.217h-.072c-.988 0-1.927.193-2.818.578a7.374 7.374 0 0 0-2.336 1.566c-.65.65-1.18 1.42-1.59 2.312a6.69 6.69 0 0 0-.602 2.841v8.478Z" fill="#fff" fill-rule="evenodd" data-name="Pfad 2081"/><path d="M231.47 277.59c0-.434.071-.844.24-1.229.168-.385.385-.723.674-.987.29-.29.602-.506.988-.675a2.91 2.91 0 0 1 1.204-.24c.41 0 .819.072 1.204.24.385.169.723.386 1.012.675.289.289.505.602.674.987.168.385.24.795.24 1.228 0 .41-.072.82-.24 1.18a3.127 3.127 0 0 1-.674.988c-.29.289-.627.506-1.012.674a2.91 2.91 0 0 1-1.204.241c-.41 0-.819-.072-1.204-.24-.386-.17-.723-.386-.988-.675a3.127 3.127 0 0 1-.674-.988 2.726 2.726 0 0 1-.24-1.18Z" fill="#fff" fill-rule="evenodd" data-name="Pfad 2082"/><path d="M237.394 304.78c0 .385-.073.747-.217 1.084-.145.337-.337.65-.602.89a2.756 2.756 0 0 1-1.999.819c-.385 0-.747-.072-1.084-.216a2.879 2.879 0 0 1-.915-.602c-.265-.241-.458-.554-.602-.891a2.808 2.808 0 0 1-.217-1.084v-18.617c0-.385.072-.746.24-1.084a2.85 2.85 0 0 1 .627-.89c.265-.266.554-.458.915-.603a2.873 2.873 0 0 1 1.132-.217c.41 0 .77.073 1.084.217.337.145.626.361.867.602.24.265.458.554.578.891.144.338.217.699.217 1.084v18.617h-.024Z" fill="#fff" fill-rule="evenodd" data-name="Pfad 2083"/><path d="M247.22 295.46c0 .818.168 1.613.506 2.432a7.408 7.408 0 0 0 1.373 2.143 6.84 6.84 0 0 0 2.047 1.542c.77.41 1.613.602 2.528.626.94 0 1.759-.12 2.481-.361s1.445-.65 2.168-1.253a7.056 7.056 0 0 1 1.156-.819c.433-.24.89-.385 1.396-.385.29 0 .603.072.94.193.337.12.674.337 1.011.626.29.265.506.578.674.915.145.361.217.723.217 1.132 0 .385-.096.77-.265 1.156-.168.385-.409.747-.746 1.084a11 11 0 0 1-3.854 2.505 12.769 12.769 0 0 1-4.672.867c-1.734 0-3.372-.313-4.889-.94a12.911 12.911 0 0 1-4.022-2.625 11.782 11.782 0 0 1-2.697-3.925c-.65-1.494-.988-3.131-.988-4.865.024-.024.024-.024.024-.049h-.024c0-1.734.337-3.371.988-4.889a12.25 12.25 0 0 1 2.697-3.95c1.156-1.131 2.48-1.998 4.022-2.648 1.517-.65 3.155-.964 4.89-.964 1.637 0 3.178.265 4.671.819a10.563 10.563 0 0 1 3.854 2.457c.337.337.578.698.746 1.083.169.386.265.771.265 1.18 0 .386-.072.771-.217 1.132a2.402 2.402 0 0 1-.698.94c-.337.289-.674.505-.987.626a2.6 2.6 0 0 1-.916.192 2.6 2.6 0 0 1-1.396-.385 8.52 8.52 0 0 1-1.18-.819c-.723-.554-1.446-.963-2.168-1.204a7.037 7.037 0 0 0-2.24-.361c-.89 0-1.734.193-2.553.554a7.007 7.007 0 0 0-2.143 1.493 7.998 7.998 0 0 0-1.47 2.168c-.36.818-.553 1.661-.529 2.576Z" fill="#fff" fill-rule="evenodd" data-name="Pfad 2084"/><path d="m279.83 294.352 7.995 8.525c.265.265.458.554.578.915.12.338.193.699.193 1.06 0 .361-.073.723-.217 1.06a3 3 0 0 1-.65.94c-.554.529-1.205.77-1.951.77a2.69 2.69 0 0 1-1.06-.217 2.445 2.445 0 0 1-.915-.674l-7.923-8.67-2.289 2.191v4.552c0 .385-.072.747-.216 1.084a2.447 2.447 0 0 1-.602.867c-.241.24-.554.433-.867.578a2.607 2.607 0 0 1-1.06.217c-.385 0-.747-.073-1.084-.217a3.277 3.277 0 0 1-.915-.578c-.265-.241-.458-.53-.626-.867a2.737 2.737 0 0 1-.241-1.084V276.77c0-.385.072-.746.24-1.083.145-.338.362-.627.627-.867.265-.241.554-.434.915-.578a2.81 2.81 0 0 1 1.084-.217 2.756 2.756 0 0 1 1.975.795c.24.24.433.53.578.867.144.337.217.698.217 1.083v16.064l8.887-8.694c.264-.265.553-.458.866-.578.314-.12.627-.193.964-.193.337 0 .698.073 1.06.217.36.145.674.385.987.699.265.289.457.578.602.915.145.337.193.674.193 1.035 0 .362-.073.699-.217 1.036a2.507 2.507 0 0 1-.626.891l-6.503 6.19Z" fill="#fff" fill-rule="evenodd" data-name="Pfad 2085"/></g></g><defs><linearGradient x1=".98" y1="1" x2="0" y2="0" id="a"><stop stop-color="#35beae" offset="0"/><stop stop-color="#569cd4" offset="1"/></linearGradient></defs></svg>