<svg xmlns="http://www.w3.org/2000/svg" width="40" height="40" viewBox="20 764 40 40"><g data-name="Gruppe 16413"><g data-name="Gruppe 16414"><path d="M20 0c11.046 0 20 8.954 20 20s-8.954 20-20 20S0 31.046 0 20 8.954 0 20 0Z" fill-rule="evenodd" fill="url(#a)" transform="translate(20 764)" data-name="Pfad 2086"/><path d="M44.4 786.74c0 .97-.308 1.795-.924 2.477-.616.682-1.431 1.111-2.443 1.288v1.65c0 .111-.034.177-.1.199a.223.223 0 0 1-.198.098h-1.287c-.066 0-.133-.033-.199-.099-.066-.065-.099-.132-.099-.198v-1.65a5.84 5.84 0 0 1-1.188-.298c-.441-.154-.76-.297-.958-.43a2.348 2.348 0 0 1-.413-.23 4.284 4.284 0 0 0-.314-.199 4.718 4.718 0 0 0-.33-.28.921.921 0 0 1-.099-.083l-.165-.165c-.11-.132-.11-.264 0-.396l.958-1.288a.317.317 0 0 1 .231-.099c.11 0 .176.033.198.1h.033c.727.638 1.486 1.034 2.279 1.188.308.044.55.066.726.066.506 0 .946-.132 1.32-.396.397-.264.595-.65.595-1.156 0-.11-.044-.275-.132-.495a1.578 1.578 0 0 0-.33-.397 2.61 2.61 0 0 0-.562-.363 3.38 3.38 0 0 0-.627-.297 8.714 8.714 0 0 0-.297-.132 5.725 5.725 0 0 0-.43-.165 5.805 5.805 0 0 1-.23-.083 1.318 1.318 0 0 1-.216-.099.296.296 0 0 0-.148-.05 6.293 6.293 0 0 0-.594-.263c-.265-.11-.452-.21-.562-.297l-.132-.066a1.011 1.011 0 0 1-.116-.066l-.148-.1a1.622 1.622 0 0 0-.165-.098 3.256 3.256 0 0 1-.495-.397 6.096 6.096 0 0 1-.397-.462 2.182 2.182 0 0 1-.33-.561 1.904 1.904 0 0 1-.198-.627c-.066-.22-.1-.462-.1-.727 0-.88.309-1.639.925-2.278.639-.682 1.442-1.1 2.41-1.254v-1.718c0-.066.034-.132.1-.198s.133-.099.199-.099h1.287c.088 0 .154.033.198.1.066.021.1.087.1.197v1.651a29 29 0 0 1 1.023.232c.374.11.649.22.825.33.264.11.463.22.595.33.198.132.33.232.396.297l.132.133c.11.11.12.22.033.33l-.759 1.387c-.044.11-.11.165-.198.165-.132 0-.22-.022-.264-.066l-.132-.132a.508.508 0 0 1-.165-.083 1.11 1.11 0 0 1-.199-.148 2.027 2.027 0 0 0-.56-.297 2.485 2.485 0 0 0-.694-.264 3.999 3.999 0 0 0-.826-.1c-.594 0-1.078.133-1.452.397-.375.242-.562.594-.562 1.056 0 .089.022.243.066.463a.803.803 0 0 0 .297.363c.154.154.275.264.364.33.021.022.06.05.115.083.055.033.12.066.198.099.075.032.147.07.215.115.33.154.517.232.561.232.022.021.077.049.165.082.083.031.166.064.248.1.08.033.163.06.247.082a8.39 8.39 0 0 1 .76.297c.066.022.186.077.363.165.176.088.297.143.363.165.396.22.638.352.726.396.22.177.407.342.561.495.242.198.407.397.496.595.132.198.231.44.297.726.088.241.132.539.132.89Z" fill="#fff" fill-rule="evenodd" data-name="Icon payment-usd"/></g></g><defs><linearGradient x1="0" y1="1" x2="1" y2="0" id="a"><stop stop-color="#35beae" offset="0"/><stop stop-color="#569cd4" offset="1"/></linearGradient></defs></svg>