<svg xmlns="http://www.w3.org/2000/svg" width="25" height="25" viewBox="353 168 25 25"><g data-name="eye"><path d="M12.5 0A12.5 12.5 0 0 1 25 12.5 12.5 12.5 0 0 1 12.5 25 12.5 12.5 0 0 1 0 12.5 12.5 12.5 0 0 1 12.5 0z" fill-rule="evenodd" fill="url(#a)" transform="translate(353 168)" data-name="Rechteck 16874"/><path d="M365.686 176.026a6.989 6.989 0 0 0-6.5 4.432 6.989 6.989 0 0 0 6.5 4.432 6.989 6.989 0 0 0 6.5-4.432 6.989 6.989 0 0 0-6.5-4.432Zm0 7.387a2.956 2.956 0 0 1 0-5.91 2.956 2.956 0 0 1 0 5.91Zm0-4.728a1.77 1.77 0 0 0-1.773 1.773c0 .981.792 1.773 1.773 1.773a1.77 1.77 0 0 0 1.773-1.773 1.77 1.77 0 0 0-1.773-1.773Z" fill="#fff" fill-rule="evenodd" data-name="Icon material-remove-red-eye"/></g><defs><linearGradient x1="0" y1="1" x2="1" y2="0" id="a"><stop stop-color="#35beae" offset="0"/><stop stop-color="#569cd4" offset="1"/></linearGradient></defs></svg>