<svg xmlns="http://www.w3.org/2000/svg" width="40" height="40" viewBox="20 712.95 40 40"><g data-name="Gruppe 16412"><path d="M0 19.9a20 20 0 1 1 0 .1z" fill-rule="evenodd" fill="url(#a)" transform="translate(20 713)" data-name="Ellipse 186"/><path d="m42.344 732.85-5.824-5.82a1.095 1.095 0 0 1 0-1.553 1.11 1.11 0 0 1 1.558 0l6.599 6.594c.417.417.426 1.086.032 1.516l-6.626 6.64a1.1 1.1 0 0 1-.78.321 1.095 1.095 0 0 1-.779-1.874l5.82-5.824Z" fill="#fff" fill-rule="evenodd" data-name="Icon ionic-ios-arrow-forward"/></g><defs><linearGradient x1="0" y1="1" x2="1" y2=".067" id="a"><stop stop-color="#35beae" offset="0"/><stop stop-color="#569cd4" offset="1"/></linearGradient></defs></svg>