<svg xmlns="http://www.w3.org/2000/svg" width="20" height="26.25" viewBox="25 1 20 26.25"><path d="M42.5 9.75h-1.25v-2.5C41.25 3.8 38.45 1 35 1s-6.25 2.8-6.25 6.25v2.5H27.5a2.507 2.507 0 0 0-2.5 2.5v12.5c0 1.375 1.125 2.5 2.5 2.5h15c1.375 0 2.5-1.125 2.5-2.5v-12.5c0-1.375-1.125-2.5-2.5-2.5ZM35 21a2.507 2.507 0 0 1-2.5-2.5c0-1.375 1.125-2.5 2.5-2.5s2.5 1.125 2.5 2.5S36.375 21 35 21Zm3.875-11.25h-7.75v-2.5A3.878 3.878 0 0 1 35 3.375a3.878 3.878 0 0 1 3.875 3.875v2.5Z" fill="#202426" fill-rule="evenodd" data-name="Icon material-lock"/></svg>