<svg xmlns="http://www.w3.org/2000/svg" width="50" height="50" viewBox="-18125 -19040.051 50 50"><g data-name="Multiple Layers (2)"><path d="M0 24.9a25 25 0 1 1 0 .1z" fill-rule="evenodd" fill="url(#a)" transform="translate(-18125 -19040)" data-name="Ellipse 178"/><path d="m-18105.948-19024.994 3.952 11.198v-.006l.313.882a2746.6 2746.6 0 0 0 2.675 7.555c.003 0 .266.017.584.033.962.042 2.155.15 3.058.258a2.2 2.2 0 0 0 .4.025l-3.919-11.114-.363-1.023-2.015-5.699c-.383-1.081-.707-2.003-.724-2.038l-.026-.074h-3.93Zm7.078.007-.008 4.414-.007 4.414-.363-1.025v-.001l-.47 9.824c.461 1.304.708 2 .71 2.003.004.003.267.02.585.035.962.041 2.154.15 3.061.258.208.024.389.033.4.024.01-.008.016-4.508.014-9.99l-.007-9.958h-3.915Zm-7.078-.008v9.974c0 5.486.006 9.979.013 9.985.006.007.346-.025.754-.071.408-.05.974-.108 1.256-.133.431-.042 1.72-.125 1.87-.125.044 0 .047-.225.053-4.226l.007-4.226.316.882.108.312.474-9.816-.158-.454-.732-2.03-.025-.072h-3.936Z" fill="#fff" fill-rule="evenodd" data-name="Icon simple-netflix"/></g><defs><linearGradient x1="1.192" y1="0" x2="-.219" y2="1" id="a"><stop stop-color="#569cd4" offset="0"/><stop stop-color="#35beae" offset="1"/></linearGradient></defs></svg>