<svg xmlns="http://www.w3.org/2000/svg" width="30" height="20.455" viewBox="147 6.5 30 20.455"><path d="M162 6.5c-6.818 0-12.64 4.24-15 10.227 2.36 5.987 8.182 10.228 15 10.228s12.64-4.241 15-10.228C174.64 10.741 168.818 6.5 162 6.5Zm0 17.045a6.82 6.82 0 0 1-6.818-6.818A6.82 6.82 0 0 1 162 9.91a6.82 6.82 0 0 1 6.818 6.818A6.82 6.82 0 0 1 162 23.545Zm0-10.909a4.085 4.085 0 0 0-4.09 4.091 4.085 4.085 0 0 0 4.09 4.091 4.085 4.085 0 0 0 4.09-4.09 4.085 4.085 0 0 0-4.09-4.092Z" fill="#202426" fill-rule="evenodd" data-name="Icon material-remove-red-eye"/></svg>