<svg xmlns="http://www.w3.org/2000/svg" width="25" height="25.05" viewBox="38.744 597.75 25 25.05"><path d="M64.993 617.755v3.77a2.514 2.514 0 0 1-2.74 2.515 24.876 24.876 0 0 1-10.848-3.86 24.511 24.511 0 0 1-7.542-7.541 24.876 24.876 0 0 1-3.859-10.899 2.514 2.514 0 0 1 2.501-2.74h3.771a2.514 2.514 0 0 1 2.514 2.162 16.14 16.14 0 0 0 .88 3.532 2.514 2.514 0 0 1-.565 2.653l-1.597 1.596a20.112 20.112 0 0 0 7.542 7.542l1.597-1.596a2.514 2.514 0 0 1 2.652-.566c1.14.426 2.325.72 3.532.88a2.514 2.514 0 0 1 2.162 2.552Z" stroke-linejoin="round" stroke-linecap="round" stroke-width="2.5" stroke="#569cd4" fill="transparent" data-name="Icon feather-phone"/></svg>