<svg xmlns="http://www.w3.org/2000/svg" width="50" height="50" viewBox="-18125 -18985.051 50 50"><g data-name="Multiple Layers (2)"><path d="M0 24.9a25 25 0 1 1 0 .1z" fill-rule="evenodd" fill="url(#a)" transform="translate(-18125 -18985)" data-name="Ellipse 179"/><g data-name="Icon feather-youtube"><path d="M-18089.92-18964.99a2.527 2.527 0 0 0-1.763-1.818c-1.564-.382-7.818-.382-7.818-.382s-6.254 0-7.818.418a2.527 2.527 0 0 0-1.763 1.818 26.363 26.363 0 0 0-.418 4.81c-.01 1.624.13 3.246.418 4.844.242.85.91 1.512 1.763 1.746 1.564.418 7.818.418 7.818.418s6.254 0 7.818-.418a2.527 2.527 0 0 0 1.763-1.818c.284-1.575.424-3.173.419-4.773.01-1.624-.13-3.246-.419-4.845Z" stroke-linejoin="round" stroke-linecap="round" stroke-width="2" stroke="#fff" fill="transparent" data-name="Pfad 1986"/><path d="m-18101.546-18957.172 5.227-2.973-5.227-2.972v5.945Z" stroke-linejoin="round" stroke-linecap="round" stroke-width="2" stroke="#fff" fill="transparent" data-name="Pfad 1987"/></g></g><defs><linearGradient x1="1.192" y1="0" x2="-.219" y2="1" id="a"><stop stop-color="#569cd4" offset="0"/><stop stop-color="#35beae" offset="1"/></linearGradient></defs></svg>